<mxfile host="app.diagrams.net" agent="Mozilla/5.0 (Windows NT 10.0; Win64; x64; rv:143.0) Gecko/20100101 Firefox/143.0" version="28.2.5">
  <diagram id="C5RBs43oDa-KdzZeNtuy" name="Page-1">
    <mxGraphModel dx="1653" dy="928" grid="1" gridSize="10" guides="1" tooltips="1" connect="1" arrows="1" fold="1" page="1" pageScale="1" pageWidth="827" pageHeight="1169" math="0" shadow="0">
      <root>
        <mxCell id="WIyWlLk6GJQsqaUBKTNV-0" />
        <mxCell id="WIyWlLk6GJQsqaUBKTNV-1" parent="WIyWlLk6GJQsqaUBKTNV-0" />
        <mxCell id="sORTHJIDr_7YfvRGFAtr-35" value="" style="rounded=0;whiteSpace=wrap;html=1;" vertex="1" parent="WIyWlLk6GJQsqaUBKTNV-1">
          <mxGeometry x="290" y="320" width="250" height="100" as="geometry" />
        </mxCell>
        <mxCell id="WIyWlLk6GJQsqaUBKTNV-2" value="" style="rounded=0;html=1;jettySize=auto;orthogonalLoop=1;fontSize=11;endArrow=block;endFill=0;endSize=8;strokeWidth=1;shadow=0;labelBackgroundColor=none;edgeStyle=orthogonalEdgeStyle;" parent="WIyWlLk6GJQsqaUBKTNV-1" source="WIyWlLk6GJQsqaUBKTNV-3" target="WIyWlLk6GJQsqaUBKTNV-6" edge="1">
          <mxGeometry relative="1" as="geometry" />
        </mxCell>
        <mxCell id="WIyWlLk6GJQsqaUBKTNV-3" value="User" style="rounded=1;whiteSpace=wrap;html=1;fontSize=12;glass=0;strokeWidth=1;shadow=0;" parent="WIyWlLk6GJQsqaUBKTNV-1" vertex="1">
          <mxGeometry x="349" y="50" width="120" height="20" as="geometry" />
        </mxCell>
        <mxCell id="WIyWlLk6GJQsqaUBKTNV-4" value="Any prompts" style="rounded=0;html=1;jettySize=auto;orthogonalLoop=1;fontSize=11;endArrow=block;endFill=0;endSize=8;strokeWidth=1;shadow=0;labelBackgroundColor=none;edgeStyle=orthogonalEdgeStyle;entryX=0.5;entryY=0;entryDx=0;entryDy=0;" parent="WIyWlLk6GJQsqaUBKTNV-1" source="WIyWlLk6GJQsqaUBKTNV-6" target="WIyWlLk6GJQsqaUBKTNV-12" edge="1">
          <mxGeometry y="40" relative="1" as="geometry">
            <mxPoint as="offset" />
            <mxPoint x="409" y="260" as="targetPoint" />
          </mxGeometry>
        </mxCell>
        <mxCell id="WIyWlLk6GJQsqaUBKTNV-6" value="User Prompts" style="rhombus;whiteSpace=wrap;html=1;shadow=0;fontFamily=Helvetica;fontSize=12;align=center;strokeWidth=1;spacing=6;spacingTop=-4;" parent="WIyWlLk6GJQsqaUBKTNV-1" vertex="1">
          <mxGeometry x="314" y="100" width="190" height="40" as="geometry" />
        </mxCell>
        <mxCell id="WIyWlLk6GJQsqaUBKTNV-12" value="&lt;div&gt;General Chat Agent&lt;/div&gt;" style="rounded=1;whiteSpace=wrap;html=1;fontSize=12;glass=0;strokeWidth=1;shadow=0;" parent="WIyWlLk6GJQsqaUBKTNV-1" vertex="1">
          <mxGeometry x="349" y="200" width="120" height="30" as="geometry" />
        </mxCell>
        <mxCell id="sORTHJIDr_7YfvRGFAtr-11" value="" style="edgeStyle=orthogonalEdgeStyle;rounded=0;orthogonalLoop=1;jettySize=auto;html=1;" edge="1" parent="WIyWlLk6GJQsqaUBKTNV-1" source="sORTHJIDr_7YfvRGFAtr-2" target="sORTHJIDr_7YfvRGFAtr-10">
          <mxGeometry relative="1" as="geometry" />
        </mxCell>
        <mxCell id="sORTHJIDr_7YfvRGFAtr-16" value="Device" style="edgeLabel;html=1;align=center;verticalAlign=middle;resizable=0;points=[];" vertex="1" connectable="0" parent="sORTHJIDr_7YfvRGFAtr-11">
          <mxGeometry x="-0.7527" y="3" relative="1" as="geometry">
            <mxPoint x="79" y="-17" as="offset" />
          </mxGeometry>
        </mxCell>
        <mxCell id="sORTHJIDr_7YfvRGFAtr-13" value="" style="edgeStyle=orthogonalEdgeStyle;rounded=0;orthogonalLoop=1;jettySize=auto;html=1;" edge="1" parent="WIyWlLk6GJQsqaUBKTNV-1" source="sORTHJIDr_7YfvRGFAtr-2" target="sORTHJIDr_7YfvRGFAtr-12">
          <mxGeometry relative="1" as="geometry" />
        </mxCell>
        <mxCell id="sORTHJIDr_7YfvRGFAtr-20" value="Cultivation" style="edgeLabel;html=1;align=center;verticalAlign=middle;resizable=0;points=[];" vertex="1" connectable="0" parent="sORTHJIDr_7YfvRGFAtr-13">
          <mxGeometry x="0.3654" y="-1" relative="1" as="geometry">
            <mxPoint x="-4" y="-19" as="offset" />
          </mxGeometry>
        </mxCell>
        <mxCell id="sORTHJIDr_7YfvRGFAtr-15" value="" style="edgeStyle=orthogonalEdgeStyle;rounded=0;orthogonalLoop=1;jettySize=auto;html=1;" edge="1" parent="WIyWlLk6GJQsqaUBKTNV-1" source="sORTHJIDr_7YfvRGFAtr-2" target="sORTHJIDr_7YfvRGFAtr-14">
          <mxGeometry relative="1" as="geometry" />
        </mxCell>
        <mxCell id="sORTHJIDr_7YfvRGFAtr-17" value="Plant" style="edgeLabel;html=1;align=center;verticalAlign=middle;resizable=0;points=[];" vertex="1" connectable="0" parent="sORTHJIDr_7YfvRGFAtr-15">
          <mxGeometry x="-0.6007" y="1" relative="1" as="geometry">
            <mxPoint x="30" y="18" as="offset" />
          </mxGeometry>
        </mxCell>
        <mxCell id="sORTHJIDr_7YfvRGFAtr-2" value="&lt;div&gt;Context/Subject&amp;nbsp;&lt;/div&gt;&lt;div&gt;of Prompt&lt;/div&gt;" style="rhombus;whiteSpace=wrap;html=1;" vertex="1" parent="WIyWlLk6GJQsqaUBKTNV-1">
          <mxGeometry x="329" y="345.33" width="160" height="60" as="geometry" />
        </mxCell>
        <mxCell id="sORTHJIDr_7YfvRGFAtr-7" value="" style="edgeStyle=orthogonalEdgeStyle;rounded=0;orthogonalLoop=1;jettySize=auto;html=1;endSize=8;endArrow=block;endFill=0;" edge="1" parent="WIyWlLk6GJQsqaUBKTNV-1" source="sORTHJIDr_7YfvRGFAtr-5" target="sORTHJIDr_7YfvRGFAtr-2">
          <mxGeometry relative="1" as="geometry" />
        </mxCell>
        <mxCell id="sORTHJIDr_7YfvRGFAtr-5" value="&lt;div&gt;General Chat Plugin&lt;/div&gt;" style="rounded=1;whiteSpace=wrap;html=1;fontSize=12;glass=0;strokeWidth=1;shadow=0;" vertex="1" parent="WIyWlLk6GJQsqaUBKTNV-1">
          <mxGeometry x="349" y="270" width="120" height="30" as="geometry" />
        </mxCell>
        <mxCell id="sORTHJIDr_7YfvRGFAtr-6" value="" style="endArrow=block;html=1;rounded=0;exitX=0.5;exitY=1;exitDx=0;exitDy=0;entryX=0.5;entryY=0;entryDx=0;entryDy=0;endSize=8;endFill=0;" edge="1" parent="WIyWlLk6GJQsqaUBKTNV-1" source="WIyWlLk6GJQsqaUBKTNV-12" target="sORTHJIDr_7YfvRGFAtr-5">
          <mxGeometry width="50" height="50" relative="1" as="geometry">
            <mxPoint x="409" y="600" as="sourcePoint" />
            <mxPoint x="459" y="550" as="targetPoint" />
          </mxGeometry>
        </mxCell>
        <mxCell id="sORTHJIDr_7YfvRGFAtr-10" value="Device Manager Agent" style="rounded=1;whiteSpace=wrap;html=1;" vertex="1" parent="WIyWlLk6GJQsqaUBKTNV-1">
          <mxGeometry x="659" y="360.33" width="90" height="30" as="geometry" />
        </mxCell>
        <mxCell id="sORTHJIDr_7YfvRGFAtr-12" value="Cultivation Manager Agent" style="rounded=1;whiteSpace=wrap;html=1;" vertex="1" parent="WIyWlLk6GJQsqaUBKTNV-1">
          <mxGeometry x="70" y="360.33" width="120" height="30" as="geometry" />
        </mxCell>
        <mxCell id="sORTHJIDr_7YfvRGFAtr-14" value="Plant Info Manager Agent" style="rounded=1;whiteSpace=wrap;html=1;" vertex="1" parent="WIyWlLk6GJQsqaUBKTNV-1">
          <mxGeometry x="349" y="450" width="120" height="30" as="geometry" />
        </mxCell>
        <mxCell id="sORTHJIDr_7YfvRGFAtr-21" value="" style="endArrow=classic;html=1;rounded=0;exitX=0.5;exitY=1;exitDx=0;exitDy=0;entryX=0.5;entryY=0;entryDx=0;entryDy=0;" edge="1" parent="WIyWlLk6GJQsqaUBKTNV-1" source="sORTHJIDr_7YfvRGFAtr-14" target="sORTHJIDr_7YfvRGFAtr-22">
          <mxGeometry width="50" height="50" relative="1" as="geometry">
            <mxPoint x="360" y="410" as="sourcePoint" />
            <mxPoint x="409" y="510" as="targetPoint" />
          </mxGeometry>
        </mxCell>
        <mxCell id="sORTHJIDr_7YfvRGFAtr-25" value="" style="edgeStyle=orthogonalEdgeStyle;rounded=0;orthogonalLoop=1;jettySize=auto;html=1;exitX=0.5;exitY=1;exitDx=0;exitDy=0;" edge="1" parent="WIyWlLk6GJQsqaUBKTNV-1" source="sORTHJIDr_7YfvRGFAtr-22" target="sORTHJIDr_7YfvRGFAtr-23">
          <mxGeometry relative="1" as="geometry">
            <mxPoint x="409" y="560" as="sourcePoint" />
          </mxGeometry>
        </mxCell>
        <mxCell id="sORTHJIDr_7YfvRGFAtr-22" value="Plant Info Relay Plugin" style="rounded=1;whiteSpace=wrap;html=1;" vertex="1" parent="WIyWlLk6GJQsqaUBKTNV-1">
          <mxGeometry x="349" y="500" width="120" height="30" as="geometry" />
        </mxCell>
        <mxCell id="sORTHJIDr_7YfvRGFAtr-28" value="" style="edgeStyle=orthogonalEdgeStyle;rounded=0;orthogonalLoop=1;jettySize=auto;html=1;" edge="1" parent="WIyWlLk6GJQsqaUBKTNV-1" source="sORTHJIDr_7YfvRGFAtr-23" target="sORTHJIDr_7YfvRGFAtr-27">
          <mxGeometry relative="1" as="geometry" />
        </mxCell>
        <mxCell id="sORTHJIDr_7YfvRGFAtr-48" value="Format" style="edgeLabel;html=1;align=center;verticalAlign=middle;resizable=0;points=[];" vertex="1" connectable="0" parent="sORTHJIDr_7YfvRGFAtr-28">
          <mxGeometry x="-0.1047" y="-2" relative="1" as="geometry">
            <mxPoint x="-1" y="-14" as="offset" />
          </mxGeometry>
        </mxCell>
        <mxCell id="sORTHJIDr_7YfvRGFAtr-30" value="" style="edgeStyle=orthogonalEdgeStyle;rounded=0;orthogonalLoop=1;jettySize=auto;html=1;" edge="1" parent="WIyWlLk6GJQsqaUBKTNV-1" source="sORTHJIDr_7YfvRGFAtr-23" target="sORTHJIDr_7YfvRGFAtr-29">
          <mxGeometry relative="1" as="geometry" />
        </mxCell>
        <mxCell id="sORTHJIDr_7YfvRGFAtr-33" value="Add" style="edgeLabel;html=1;align=center;verticalAlign=middle;resizable=0;points=[];" vertex="1" connectable="0" parent="sORTHJIDr_7YfvRGFAtr-30">
          <mxGeometry x="-0.0397" y="-1" relative="1" as="geometry">
            <mxPoint x="-1" y="-11" as="offset" />
          </mxGeometry>
        </mxCell>
        <mxCell id="sORTHJIDr_7YfvRGFAtr-32" value="" style="edgeStyle=orthogonalEdgeStyle;rounded=0;orthogonalLoop=1;jettySize=auto;html=1;" edge="1" parent="WIyWlLk6GJQsqaUBKTNV-1" source="sORTHJIDr_7YfvRGFAtr-23" target="sORTHJIDr_7YfvRGFAtr-31">
          <mxGeometry relative="1" as="geometry" />
        </mxCell>
        <mxCell id="sORTHJIDr_7YfvRGFAtr-34" value="Get" style="edgeLabel;html=1;align=center;verticalAlign=middle;resizable=0;points=[];" vertex="1" connectable="0" parent="sORTHJIDr_7YfvRGFAtr-32">
          <mxGeometry x="-0.1391" y="-1" relative="1" as="geometry">
            <mxPoint x="22" y="80" as="offset" />
          </mxGeometry>
        </mxCell>
        <mxCell id="sORTHJIDr_7YfvRGFAtr-23" value="Prompt Requests" style="rhombus;whiteSpace=wrap;html=1;" vertex="1" parent="WIyWlLk6GJQsqaUBKTNV-1">
          <mxGeometry x="329" y="547.5" width="160" height="45" as="geometry" />
        </mxCell>
        <mxCell id="sORTHJIDr_7YfvRGFAtr-63" value="" style="edgeStyle=orthogonalEdgeStyle;rounded=0;orthogonalLoop=1;jettySize=auto;html=1;entryX=0.5;entryY=0;entryDx=0;entryDy=0;" edge="1" parent="WIyWlLk6GJQsqaUBKTNV-1" source="sORTHJIDr_7YfvRGFAtr-27" target="sORTHJIDr_7YfvRGFAtr-54">
          <mxGeometry relative="1" as="geometry" />
        </mxCell>
        <mxCell id="sORTHJIDr_7YfvRGFAtr-27" value="&lt;div&gt;Format Plant Info&lt;/div&gt;&lt;div&gt;For C++ Constant&lt;/div&gt;" style="rounded=1;whiteSpace=wrap;html=1;" vertex="1" parent="WIyWlLk6GJQsqaUBKTNV-1">
          <mxGeometry x="580" y="540" width="120" height="60" as="geometry" />
        </mxCell>
        <mxCell id="sORTHJIDr_7YfvRGFAtr-61" value="" style="edgeStyle=orthogonalEdgeStyle;rounded=0;orthogonalLoop=1;jettySize=auto;html=1;entryX=0.5;entryY=0;entryDx=0;entryDy=0;" edge="1" parent="WIyWlLk6GJQsqaUBKTNV-1" source="sORTHJIDr_7YfvRGFAtr-29" target="sORTHJIDr_7YfvRGFAtr-58">
          <mxGeometry relative="1" as="geometry" />
        </mxCell>
        <mxCell id="sORTHJIDr_7YfvRGFAtr-29" value="Add Plant Info" style="rounded=1;whiteSpace=wrap;html=1;" vertex="1" parent="WIyWlLk6GJQsqaUBKTNV-1">
          <mxGeometry x="109" y="540" width="120" height="60" as="geometry" />
        </mxCell>
        <mxCell id="sORTHJIDr_7YfvRGFAtr-31" value="Get General Plant Info" style="rounded=1;whiteSpace=wrap;html=1;" vertex="1" parent="WIyWlLk6GJQsqaUBKTNV-1">
          <mxGeometry x="349" y="767.5" width="120" height="52.5" as="geometry" />
        </mxCell>
        <mxCell id="sORTHJIDr_7YfvRGFAtr-36" value="&lt;div&gt;Handoff /Magentic&lt;/div&gt;&lt;div&gt;Orchestration&lt;/div&gt;" style="text;html=1;align=center;verticalAlign=middle;whiteSpace=wrap;rounded=0;" vertex="1" parent="WIyWlLk6GJQsqaUBKTNV-1">
          <mxGeometry x="469" y="330.33" width="60" height="30" as="geometry" />
        </mxCell>
        <mxCell id="sORTHJIDr_7YfvRGFAtr-44" value="Get Plant Info Process" style="swimlane;fontStyle=0;childLayout=stackLayout;horizontal=1;startSize=30;horizontalStack=0;resizeParent=1;resizeParentMax=0;resizeLast=0;collapsible=1;marginBottom=0;whiteSpace=wrap;html=1;" vertex="1" parent="WIyWlLk6GJQsqaUBKTNV-1">
          <mxGeometry x="214" y="850" width="390" height="120" as="geometry" />
        </mxCell>
        <mxCell id="sORTHJIDr_7YfvRGFAtr-45" value="Step 1A: Retrieve Info On Database given Plant Name" style="text;strokeColor=none;fillColor=none;align=left;verticalAlign=middle;spacingLeft=4;spacingRight=4;overflow=hidden;points=[[0,0.5],[1,0.5]];portConstraint=eastwest;rotatable=0;whiteSpace=wrap;html=1;" vertex="1" parent="sORTHJIDr_7YfvRGFAtr-44">
          <mxGeometry y="30" width="390" height="30" as="geometry" />
        </mxCell>
        <mxCell id="sORTHJIDr_7YfvRGFAtr-46" value="Step 1B: Search Rag for Info on Plant and Build Info from LLM/Rag" style="text;strokeColor=none;fillColor=none;align=left;verticalAlign=middle;spacingLeft=4;spacingRight=4;overflow=hidden;points=[[0,0.5],[1,0.5]];portConstraint=eastwest;rotatable=0;whiteSpace=wrap;html=1;" vertex="1" parent="sORTHJIDr_7YfvRGFAtr-44">
          <mxGeometry y="60" width="390" height="30" as="geometry" />
        </mxCell>
        <mxCell id="sORTHJIDr_7YfvRGFAtr-65" value="Step 2: Generate Response based on Plant Info Model" style="text;strokeColor=none;fillColor=none;align=left;verticalAlign=middle;spacingLeft=4;spacingRight=4;overflow=hidden;points=[[0,0.5],[1,0.5]];portConstraint=eastwest;rotatable=0;whiteSpace=wrap;html=1;" vertex="1" parent="sORTHJIDr_7YfvRGFAtr-44">
          <mxGeometry y="90" width="390" height="30" as="geometry" />
        </mxCell>
        <mxCell id="sORTHJIDr_7YfvRGFAtr-66" value="" style="endArrow=classic;html=1;rounded=0;exitX=0;exitY=0.5;exitDx=0;exitDy=0;entryX=0;entryY=0.5;entryDx=0;entryDy=0;" edge="1" parent="sORTHJIDr_7YfvRGFAtr-44" source="sORTHJIDr_7YfvRGFAtr-45" target="sORTHJIDr_7YfvRGFAtr-46">
          <mxGeometry width="50" height="50" relative="1" as="geometry">
            <mxPoint x="41" y="-40" as="sourcePoint" />
            <mxPoint x="91" y="-90" as="targetPoint" />
            <Array as="points">
              <mxPoint x="-79" y="45" />
              <mxPoint x="-79" y="75" />
            </Array>
          </mxGeometry>
        </mxCell>
        <mxCell id="sORTHJIDr_7YfvRGFAtr-67" value="not found" style="edgeLabel;html=1;align=center;verticalAlign=middle;resizable=0;points=[];" vertex="1" connectable="0" parent="sORTHJIDr_7YfvRGFAtr-66">
          <mxGeometry x="-0.6" y="-1" relative="1" as="geometry">
            <mxPoint as="offset" />
          </mxGeometry>
        </mxCell>
        <mxCell id="sORTHJIDr_7YfvRGFAtr-54" value="Format Plant Info For C++ Process" style="swimlane;fontStyle=0;childLayout=stackLayout;horizontal=1;startSize=30;horizontalStack=0;resizeParent=1;resizeParentMax=0;resizeLast=0;collapsible=1;marginBottom=0;whiteSpace=wrap;html=1;" vertex="1" parent="WIyWlLk6GJQsqaUBKTNV-1">
          <mxGeometry x="550" y="627.5" width="180" height="120" as="geometry" />
        </mxCell>
        <mxCell id="sORTHJIDr_7YfvRGFAtr-55" value="Step 1: Check if Prompt Contains all desired information" style="text;strokeColor=none;fillColor=none;align=left;verticalAlign=middle;spacingLeft=4;spacingRight=4;overflow=hidden;points=[[0,0.5],[1,0.5]];portConstraint=eastwest;rotatable=0;whiteSpace=wrap;html=1;" vertex="1" parent="sORTHJIDr_7YfvRGFAtr-54">
          <mxGeometry y="30" width="180" height="30" as="geometry" />
        </mxCell>
        <mxCell id="sORTHJIDr_7YfvRGFAtr-69" value="Step 1a:&amp;nbsp;Get Plant Info Process" style="text;strokeColor=none;fillColor=none;align=left;verticalAlign=middle;spacingLeft=4;spacingRight=4;overflow=hidden;points=[[0,0.5],[1,0.5]];portConstraint=eastwest;rotatable=0;whiteSpace=wrap;html=1;" vertex="1" parent="sORTHJIDr_7YfvRGFAtr-54">
          <mxGeometry y="60" width="180" height="30" as="geometry" />
        </mxCell>
        <mxCell id="sORTHJIDr_7YfvRGFAtr-56" value="Step 2: Format Plant Info" style="text;strokeColor=none;fillColor=none;align=left;verticalAlign=middle;spacingLeft=4;spacingRight=4;overflow=hidden;points=[[0,0.5],[1,0.5]];portConstraint=eastwest;rotatable=0;whiteSpace=wrap;html=1;" vertex="1" parent="sORTHJIDr_7YfvRGFAtr-54">
          <mxGeometry y="90" width="180" height="30" as="geometry" />
        </mxCell>
        <mxCell id="sORTHJIDr_7YfvRGFAtr-58" value="Add Plant Process" style="swimlane;fontStyle=0;childLayout=stackLayout;horizontal=1;startSize=30;horizontalStack=0;resizeParent=1;resizeParentMax=0;resizeLast=0;collapsible=1;marginBottom=0;whiteSpace=wrap;html=1;" vertex="1" parent="WIyWlLk6GJQsqaUBKTNV-1">
          <mxGeometry x="79" y="627.5" width="180" height="90" as="geometry" />
        </mxCell>
        <mxCell id="sORTHJIDr_7YfvRGFAtr-59" value="Step 1" style="text;strokeColor=none;fillColor=none;align=left;verticalAlign=middle;spacingLeft=4;spacingRight=4;overflow=hidden;points=[[0,0.5],[1,0.5]];portConstraint=eastwest;rotatable=0;whiteSpace=wrap;html=1;" vertex="1" parent="sORTHJIDr_7YfvRGFAtr-58">
          <mxGeometry y="30" width="180" height="30" as="geometry" />
        </mxCell>
        <mxCell id="sORTHJIDr_7YfvRGFAtr-60" value="Step 2" style="text;strokeColor=none;fillColor=none;align=left;verticalAlign=middle;spacingLeft=4;spacingRight=4;overflow=hidden;points=[[0,0.5],[1,0.5]];portConstraint=eastwest;rotatable=0;whiteSpace=wrap;html=1;" vertex="1" parent="sORTHJIDr_7YfvRGFAtr-58">
          <mxGeometry y="60" width="180" height="30" as="geometry" />
        </mxCell>
        <mxCell id="sORTHJIDr_7YfvRGFAtr-64" value="" style="endArrow=classic;html=1;rounded=0;entryX=0.5;entryY=0;entryDx=0;entryDy=0;exitX=0.5;exitY=1;exitDx=0;exitDy=0;" edge="1" parent="WIyWlLk6GJQsqaUBKTNV-1" source="sORTHJIDr_7YfvRGFAtr-31" target="sORTHJIDr_7YfvRGFAtr-44">
          <mxGeometry width="50" height="50" relative="1" as="geometry">
            <mxPoint x="270" y="810" as="sourcePoint" />
            <mxPoint x="320" y="760" as="targetPoint" />
          </mxGeometry>
        </mxCell>
        <mxCell id="sORTHJIDr_7YfvRGFAtr-70" value="" style="endArrow=classic;html=1;rounded=0;exitX=0;exitY=0.5;exitDx=0;exitDy=0;entryX=0;entryY=0.5;entryDx=0;entryDy=0;" edge="1" parent="WIyWlLk6GJQsqaUBKTNV-1">
          <mxGeometry width="50" height="50" relative="1" as="geometry">
            <mxPoint x="550" y="672.5" as="sourcePoint" />
            <mxPoint x="550" y="702.5" as="targetPoint" />
            <Array as="points">
              <mxPoint x="471" y="672.5" />
              <mxPoint x="471" y="702.5" />
            </Array>
          </mxGeometry>
        </mxCell>
        <mxCell id="sORTHJIDr_7YfvRGFAtr-71" value="not found" style="edgeLabel;html=1;align=center;verticalAlign=middle;resizable=0;points=[];" vertex="1" connectable="0" parent="sORTHJIDr_7YfvRGFAtr-70">
          <mxGeometry x="-0.6" y="-1" relative="1" as="geometry">
            <mxPoint x="-8" y="1" as="offset" />
          </mxGeometry>
        </mxCell>
      </root>
    </mxGraphModel>
  </diagram>
</mxfile>
